<svg width="1728" height="1117" viewBox="0 0 1728 1117" fill="none" xmlns="http://www.w3.org/2000/svg">
<path fill-rule="evenodd" clip-rule="evenodd" d="M1370 955C1385.82 955 1400 943.44 1400 924.725C1400 908.308 1385.82 895 1370 895C1354.18 895 1340 908.308 1340 924.725C1340 941.141 1350.91 955 1370 955ZM1370 939.037C1376.78 939.037 1382.27 932.629 1382.27 924.725C1382.27 916.821 1376.78 910.413 1370 910.413C1363.22 910.413 1357.73 916.821 1357.73 924.725C1357.73 932.629 1363.22 939.037 1370 939.037Z" fill="#DBE0D2"/>
<path fill-rule="evenodd" clip-rule="evenodd" d="M1484 84C1499.82 84 1514 72.4404 1514 53.7248C1514 37.3082 1499.82 24 1484 24C1468.18 24 1454 37.3082 1454 53.7248C1454 70.1413 1464.91 84 1484 84ZM1484 68.0367C1490.78 68.0367 1496.27 61.6291 1496.27 53.7248C1496.27 45.8205 1490.78 39.4129 1484 39.4129C1477.22 39.4129 1471.73 45.8205 1471.73 53.7248C1471.73 61.6291 1477.22 68.0367 1484 68.0367Z" fill="#DBE0D2"/>
<path fill-rule="evenodd" clip-rule="evenodd" d="M140 108C179.539 108 215 79.1009 215 32.3119C215 -8.72942 179.539 -42 140 -42C100.461 -42 65 -8.72942 65 32.3119C65 73.3533 92.2727 108 140 108ZM140 68.0918C156.945 68.0918 170.682 52.0726 170.682 32.312C170.682 12.5513 156.945 -3.46783 140 -3.46783C123.055 -3.46783 109.318 12.5513 109.318 32.312C109.318 52.0726 123.055 68.0918 140 68.0918Z" fill="#DBE0D2"/>
<path fill-rule="evenodd" clip-rule="evenodd" d="M1679 1105C1718.54 1105 1754 1076.1 1754 1029.31C1754 988.271 1718.54 955 1679 955C1639.46 955 1604 988.271 1604 1029.31C1604 1070.35 1631.27 1105 1679 1105ZM1679 1065.09C1695.95 1065.09 1709.68 1049.07 1709.68 1029.31C1709.68 1009.55 1695.95 993.532 1679 993.532C1662.05 993.532 1648.32 1009.55 1648.32 1029.31C1648.32 1049.07 1662.05 1065.09 1679 1065.09Z" fill="#DBE0D2"/>
<path fill-rule="evenodd" clip-rule="evenodd" d="M720 841C735.815 841 750 829.44 750 810.725C750 794.308 735.815 781 720 781C704.185 781 690 794.308 690 810.725C690 827.141 700.909 841 720 841ZM720 825.037C726.778 825.037 732.273 818.629 732.273 810.725C732.273 802.821 726.778 796.413 720 796.413C713.222 796.413 707.727 802.821 707.727 810.725C707.727 818.629 713.222 825.037 720 825.037Z" fill="#DBE0D2"/>
<path d="M90.1685 1007.06C85.2506 1007.11 51.6878 1013.71 33.1773 1021.06C29.5106 1002.71 17.5239 970.53 15.2486 967.412C13.7203 966.53 -2.44641 969.826 -9.375 971.238C-11.9298 981.31 -5.2122 1018.15 -1.53409 1035.3C-11.5535 1038.54 -48.6428 1060.43 -59.4777 1068.61C-57.2366 1075.31 -43.6189 1097.61 -38.3213 1106.08C-27.5549 1105.08 7.97198 1085.9 14.9006 1084.49C16.3946 1088.96 40.6418 1124.61 47.5019 1130.37L75.2163 1124.72C73.4508 1116.49 61.0227 1082.25 53.484 1067.07C63.5034 1063.83 88.2296 1049.24 102.936 1037.89C103.561 1036.8 95.4662 1015.53 90.1685 1007.06Z" fill="#1F4E43" stroke="white" stroke-width="2"/>
<path d="M1151.07 512.824C1149.1 512.842 1135.68 515.484 1128.27 518.426C1126.8 511.084 1122.01 498.212 1121.1 496.965C1120.49 496.612 1114.02 497.93 1111.25 498.495C1110.23 502.524 1112.92 517.258 1114.39 524.122C1110.38 525.416 1095.54 534.171 1091.21 537.443C1092.11 540.125 1097.55 549.044 1099.67 552.432C1103.98 552.032 1118.19 544.359 1120.96 543.794C1121.56 545.583 1131.26 559.843 1134 562.149L1145.09 559.889C1144.38 556.594 1139.41 542.899 1136.39 536.828C1140.4 535.533 1150.29 529.696 1156.17 525.154C1156.42 524.721 1153.19 516.212 1151.07 512.824Z" fill="#1F4E43" stroke="white" stroke-width="2"/>
<path d="M444.067 452.824C442.1 452.842 428.675 455.484 421.271 458.426C419.804 451.084 415.01 438.212 414.099 436.965C413.488 436.612 407.021 437.93 404.25 438.495C403.228 442.524 405.915 457.258 407.386 464.122C403.379 465.416 388.543 474.171 384.209 477.443C385.105 480.125 390.552 489.044 392.671 492.432C396.978 492.032 411.189 484.359 413.96 483.794C414.558 485.583 424.257 499.843 427.001 502.149L438.087 499.889C437.38 496.594 432.409 482.899 429.394 476.828C433.401 475.533 443.292 469.696 449.175 465.154C449.425 464.721 446.186 456.212 444.067 452.824Z" fill="#1F4E43" stroke="white" stroke-width="2"/>
<path d="M1565.07 452.824C1563.1 452.842 1549.68 455.484 1542.27 458.426C1540.8 451.084 1536.01 438.212 1535.1 436.965C1534.49 436.612 1528.02 437.93 1525.25 438.495C1524.23 442.524 1526.92 457.258 1528.39 464.122C1524.38 465.416 1509.54 474.171 1505.21 477.443C1506.11 480.125 1511.55 489.044 1513.67 492.432C1517.98 492.032 1532.19 484.359 1534.96 483.794C1535.56 485.583 1545.26 499.843 1548 502.149L1559.09 499.889C1558.38 496.594 1553.41 482.899 1550.39 476.828C1554.4 475.533 1564.29 469.696 1570.17 465.154C1570.42 464.721 1567.19 456.212 1565.07 452.824Z" fill="#1F4E43" stroke="white" stroke-width="2"/>
<rect width="1728" height="1117" fill="black" fill-opacity="0.5"/>
</svg>
