<svg width="40" height="40" viewBox="0 0 40 40" fill="none" xmlns="http://www.w3.org/2000/svg">
<g clip-path="url(#clip0_1_134)">
<path d="M34.2857 26.25H17.1429C16.3571 26.25 15.7143 25.6875 15.7143 25V5C15.7143 4.3125 16.3571 3.75 17.1429 3.75H29.6518L35.7143 9.05469V25C35.7143 25.6875 35.0714 26.25 34.2857 26.25ZM17.1429 30H34.2857C37.4375 30 40 27.7578 40 25V9.05469C40 8.0625 39.5446 7.10938 38.7411 6.40625L32.6875 1.10156C31.8839 0.398438 30.7946 0 29.6607 0H17.1429C13.9911 0 11.4286 2.24219 11.4286 5V25C11.4286 27.7578 13.9911 30 17.1429 30ZM5.71429 10C2.5625 10 0 12.2422 0 15V35C0 37.7578 2.5625 40 5.71429 40H22.8571C26.0089 40 28.5714 37.7578 28.5714 35V32.5H24.2857V35C24.2857 35.6875 23.6429 36.25 22.8571 36.25H5.71429C4.92857 36.25 4.28571 35.6875 4.28571 35V15C4.28571 14.3125 4.92857 13.75 5.71429 13.75H8.57143V10H5.71429Z" fill="#1F4E43"/>
</g>
<defs>
<clipPath id="clip0_1_134">
<rect width="40" height="40" fill="white"/>
</clipPath>
</defs>
</svg>
