<svg width="318" height="240" viewBox="0 0 318 240" fill="none" xmlns="http://www.w3.org/2000/svg">
<path fill-rule="evenodd" clip-rule="evenodd" d="M230 214C276.128 214 317.5 180.284 317.5 125.697C317.5 77.8157 276.128 39 230 39C183.872 39 142.5 77.8157 142.5 125.697C142.5 173.579 174.318 214 230 214ZM230 167.44C249.769 167.44 265.796 148.751 265.796 125.697C265.796 102.643 249.769 83.9542 230 83.9542C210.231 83.9542 194.205 102.643 194.205 125.697C194.205 148.751 210.231 167.44 230 167.44Z" fill="#DBE0D2"/>
<path d="M192.697 60.7353C186.959 60.7906 147.802 68.4944 126.207 77.0754C121.929 55.6613 107.945 18.1184 105.29 14.4809C103.507 13.4515 84.6459 17.2965 76.5625 18.9443C73.582 30.695 81.4191 73.6697 85.7102 93.6882C74.021 97.464 30.75 123 18.1094 132.541C20.724 140.365 36.6112 166.377 42.7918 176.26C55.3526 175.093 96.8006 152.714 104.884 151.066C106.627 156.283 134.915 197.874 142.919 204.6L175.252 198.008C173.193 188.4 158.693 148.454 149.898 130.747C161.587 126.971 190.435 109.947 207.593 96.6995C208.322 95.4365 198.877 70.6184 192.697 60.7353Z" fill="#1F4E43" stroke="white" stroke-width="2"/>
</svg>
